<svg width="112" height="112" viewBox="0 0 112 112" fill="none" xmlns="http://www.w3.org/2000/svg">
    <g id="vsCodeSvg">
        <path d="M101.535 17.605L81.354 7.88899C80.2143 7.33948 78.9319 7.15814 77.6845 7.37011C76.4372 7.58208 75.2867 8.17686 74.3925 9.07199L8.32998 69.3C7.52845 70.0273 7.04865 71.0432 6.99614 72.1243C6.94363 73.2053 7.32271 74.2629 8.04998 75.0645C8.13748 75.159 8.22498 75.25 8.31948 75.334L13.713 80.234C14.4178 80.8754 15.3249 81.2497 16.277 81.2919C17.229 81.3341 18.1657 81.0416 18.9245 80.465L98.497 20.125C99.098 19.6689 99.8144 19.3897 100.566 19.3186C101.317 19.2476 102.073 19.3877 102.749 19.7231C103.424 20.0585 103.993 20.5758 104.391 21.217C104.789 21.8581 105 22.5975 105 23.352V23.1175C105 21.9656 104.675 20.8372 104.062 19.862C103.449 18.8868 102.573 18.1045 101.535 17.605Z"
              fill="#0065A9"/>
        <path d="M101.535 94.395L81.354 104.115C80.214 104.662 78.9319 104.843 77.6849 104.631C76.4379 104.419 75.2875 103.825 74.3925 102.932L8.32998 42.7C7.52845 41.9727 7.04865 40.9568 6.99614 39.8758C6.94363 38.7947 7.32271 37.7371 8.04998 36.9355C8.13748 36.841 8.22498 36.75 8.31948 36.666L13.713 31.766C14.4185 31.1219 15.3277 30.7459 16.2821 30.7037C17.2365 30.6615 18.1754 30.9557 18.935 31.535L98.497 91.875C99.098 92.3311 99.8144 92.6104 100.566 92.6814C101.317 92.7524 102.073 92.6123 102.749 92.2769C103.424 91.9415 103.993 91.4242 104.391 90.783C104.789 90.1419 105 89.4025 105 88.648V88.9C104.996 90.0488 104.669 91.1733 104.057 92.1451C103.444 93.1168 102.57 93.8965 101.535 94.395Z"
              fill="#007ACC"/>
        <path d="M81.354 104.114C80.214 104.662 78.9319 104.843 77.6849 104.631C76.4379 104.419 75.2875 103.825 74.3925 102.931C74.8951 103.428 75.5329 103.764 76.2261 103.899C76.9192 104.034 77.6368 103.962 78.289 103.691C78.9411 103.42 79.4988 102.963 79.8921 102.376C80.2854 101.79 80.4969 101.1 80.5 100.394V11.606C80.5006 10.8965 80.2906 10.2028 79.8966 9.61274C79.5026 9.02271 78.9423 8.56288 78.2868 8.29152C77.6312 8.02016 76.9099 7.94946 76.2141 8.0884C75.5184 8.22734 74.8795 8.56965 74.3785 9.07197C75.2728 8.17717 76.4231 7.58235 77.6702 7.3698C78.9174 7.15724 80.1997 7.33744 81.34 7.88547L101.517 17.5875C102.559 18.0845 103.438 18.8657 104.054 19.8411C104.67 20.8165 104.998 21.9463 105 23.1V88.9C105 90.0528 104.675 91.1822 104.061 92.1581C103.447 93.134 102.571 93.9167 101.531 94.416L81.354 104.114Z"
              fill="#1F9CF0"/>
    </g>
    <g id="jsSvg">
        <path d="M8.11639 7.5H113.116V112.5H8.11639V7.5Z" fill="#F5DE19"/>
        <path d="M78.6501 89.5312C79.5448 91.3485 80.9347 92.8759 82.6598 93.9375C84.3848 94.9991 86.3747 95.5515 88.4001 95.5313C92.4876 95.5313 95.1014 93.4875 95.1014 90.6562C95.1014 87.2812 92.4164 86.0738 87.9164 84.105L85.4489 83.0475C78.3239 80.0138 73.5989 76.215 73.5989 68.1825C73.5989 60.7838 79.2239 55.1475 88.0476 55.1475C90.904 54.9412 93.7579 55.5805 96.2534 56.9856C98.7488 58.3907 100.775 60.4994 102.08 63.0488L94.3664 67.98C93.864 66.716 92.9892 65.6345 91.858 64.879C90.7268 64.1236 89.3927 63.7298 88.0326 63.75C87.4392 63.6906 86.84 63.7555 86.273 63.9404C85.7061 64.1254 85.1839 64.4265 84.7397 64.8244C84.2956 65.2224 83.9392 65.7085 83.6932 66.2518C83.4473 66.7951 83.3173 67.3837 83.3114 67.98C83.3114 70.9388 85.1451 72.1388 89.3789 73.98L91.8464 75.0375C100.231 78.6338 104.971 82.2975 104.971 90.5363C104.971 99.42 97.9926 104.287 88.6214 104.287C84.97 104.52 81.3293 103.691 78.1387 101.901C74.948 100.11 72.3438 97.4342 70.6401 94.1963L78.6501 89.5312ZM43.7939 90.3863C45.3426 93.135 46.7526 95.46 50.1426 95.46C53.3826 95.46 55.4301 94.1925 55.4301 89.2612V55.71H65.2964V89.3925C65.2964 99.6075 59.2964 104.257 50.5626 104.257C47.4755 104.426 44.4095 103.657 41.7677 102.051C39.126 100.444 37.0321 98.0761 35.7614 95.2575L43.7939 90.3863Z"
              fill="black"/>
    </g>
    <g id="html">
        <path d="M22.9817 102.004L14.5554 7.5H107.143L98.7054 101.989L60.7929 112.5L22.9817 102.004Z" fill="#E44F26"/>
        <path d="M60.8492 104.468L91.4867 95.9738L98.6942 15.2288H60.8492V104.468Z" fill="#F1662A"/>
        <path d="M60.8492 50.2762H45.5117L44.4542 38.4075H60.8492V26.8162H31.7867L32.0642 29.9287L34.9104 61.8675H60.8492V50.2762ZM60.8492 80.3775L60.7967 80.3925L47.8892 76.9087L47.0642 67.665H35.4279L37.0517 85.86L60.7967 92.4525L60.8492 92.4375V80.3775Z"
              fill="#EBEBEB"/>
        <path d="M60.8079 50.2762V61.8675H75.0804L73.7379 76.9012L60.8079 80.3887V92.4487L84.5717 85.86L84.7442 83.9025L87.4667 53.3887L87.7517 50.2762H60.8079ZM60.8079 26.8162V38.4075H88.8054L89.0379 35.805L89.5667 29.9287L89.8442 26.8162H60.8079Z"
              fill="white"/>
    </g>
    <g id="css">
        <path d="M22.3653 101.154L13.9428 7.4375H106.523L98.089 101.139L60.1765 111.562L22.3653 101.154Z"
              fill="#1572B6"/>
        <path d="M60.2328 103.597L90.8703 95.174L98.0778 15.1019H60.2328V103.597Z" fill="#33A9DC"/>
        <path d="M60.2328 49.054H75.5703L76.6278 37.2842H60.2328V25.7896H89.2953L89.0178 28.8724L86.1715 60.5487H60.2328V49.054Z"
              fill="white"/>
        <path d="M60.304 78.9045L60.2515 78.9193L47.344 75.4609L46.519 66.2942H34.8828L36.5065 84.3413L60.2478 90.8788L60.304 90.864V78.9045Z"
              fill="#EBEBEB"/>
        <path d="M74.584 60.0615L73.189 75.4534L60.2628 78.9119V90.8714L84.0228 84.3412L84.199 82.4001L86.2128 60.0615H74.584Z"
              fill="white"/>
        <path d="M60.274 25.7896V37.2842H32.2765L32.044 34.6997L31.5153 28.8724L31.2378 25.7896H60.274ZM60.2328 49.054V60.5487H47.4865L47.254 57.9642L46.729 52.1369L46.4515 49.054H60.2328Z"
              fill="#EBEBEB"/>
    </g>
    <g id="redux">
        <path d="M72.7792 69.5627C76.6509 69.1619 79.5882 65.8242 79.4546 61.8184C79.3214 57.8131 75.9833 54.6086 71.9779 54.6086H71.7111C67.5718 54.7422 64.3677 58.2135 64.5013 62.3525C64.6349 64.3553 65.4357 66.091 66.6374 67.2926C62.098 76.2385 55.1554 82.7807 44.7415 88.2549C37.6652 91.9934 30.3222 93.3287 22.9792 92.3943C16.971 91.593 12.298 88.923 9.3603 84.5164C5.08817 77.9742 4.68776 70.8975 8.29268 63.8213C10.8296 58.7475 14.8345 55.009 17.3714 53.1398C16.8374 51.4041 16.0361 48.4668 15.6357 46.3307C-3.72371 60.35 -1.72084 79.3094 4.15375 88.2549C8.55949 94.9311 17.505 99.0701 27.3849 99.0701C30.055 99.0701 32.7251 98.8029 35.3955 98.1357C52.4853 94.7975 65.4361 84.65 72.7792 69.5627ZM96.2775 53.0066C86.1304 41.1234 71.1771 34.5811 54.0873 34.5811H51.9513C50.7496 32.1779 48.2128 30.5754 45.4091 30.5754H45.1419C41.0033 30.709 37.7992 34.1803 37.9324 38.3197C38.066 42.325 41.4037 45.5295 45.4091 45.5295H45.6759C48.6132 45.3959 51.1501 43.5266 52.2181 40.9898H54.6214C64.7685 40.9898 74.3812 43.927 83.0599 49.6684C89.7353 54.0746 94.5419 59.816 97.2119 66.7586C99.4816 72.3664 99.348 77.8406 96.9447 82.5139C93.2066 89.5902 86.9316 93.4623 78.6537 93.4623C73.3132 93.4623 68.2398 91.8598 65.5693 90.6582C64.1009 91.9934 61.4304 94.1295 59.5611 95.4652C65.3025 98.1352 71.1771 99.6041 76.7845 99.6041C89.6017 99.6041 99.0812 92.5275 102.686 85.4512C106.558 77.707 106.291 64.3553 96.2775 53.0066ZM28.4529 71.832C28.5865 75.8377 31.9242 79.0418 35.9296 79.0418H36.1968C40.3357 78.9086 43.5398 75.4369 43.4062 71.2979C43.273 67.2922 39.9349 64.0881 35.9296 64.0881H35.6628C35.3955 64.0881 34.9947 64.0881 34.7283 64.2213C29.2542 55.1422 26.9845 45.2623 27.7857 34.5807C28.3193 26.5697 30.9898 19.6266 35.6628 13.8852C39.5345 8.94508 47.0111 6.5418 52.0849 6.40861C66.2369 6.14139 72.2447 23.7656 72.6455 30.8422C74.3812 31.2426 77.3185 32.1775 79.3214 32.8451C77.7189 11.2156 64.3677 0 51.5509 0C39.5345 0 28.4529 8.67869 24.0468 21.4963C17.9054 38.5865 21.9107 55.009 29.3874 67.9602C28.7201 68.8947 28.3193 70.3635 28.4529 71.8324V71.832Z"
              fill="#764ABC"/>
    </g>
    <g id="sass">
        <path d="M101.473 50.0766C97.4031 50.0975 93.8654 51.0694 90.9035 52.5063C89.8163 50.3721 88.7295 48.4708 88.538 47.076C88.3246 45.4493 88.0691 44.4561 88.3246 42.5122C88.5805 40.5683 89.7313 37.8001 89.7098 37.589C89.6888 37.3778 89.4539 36.3846 87.1099 36.3637C84.7659 36.3424 82.7413 36.8073 82.5069 37.42C82.2724 38.0326 81.825 39.4273 81.5266 40.8637C81.1217 42.9771 76.8386 50.5198 74.3881 54.471C73.5993 52.9291 72.9175 51.5765 72.768 50.499C72.5551 48.8722 72.2991 47.879 72.5551 45.9351C72.811 43.9912 73.9617 41.2235 73.9403 41.0119C73.9188 40.8007 73.6843 39.8075 71.3403 39.7866C68.9959 39.7653 66.9713 40.2302 66.7373 40.8429C66.5029 41.4559 66.247 42.8923 65.7571 44.2871C65.2667 45.6818 59.5769 58.275 58.0853 61.5285C57.4824 62.8453 56.8501 64.1487 56.1887 65.4376C56.1887 65.4376 56.1672 65.501 56.1032 65.6066C55.8954 66.0107 55.6824 66.4122 55.4643 66.811V66.8318C55.1444 67.4028 54.8035 67.9307 54.633 67.9307C54.5051 67.9307 54.2706 66.4095 54.6755 64.3387C55.5278 59.9652 57.5524 53.1615 57.5314 52.9291C57.5314 52.8022 57.9148 51.6191 56.2102 51.006C54.5476 50.3934 53.9512 51.4075 53.8017 51.4075C53.6527 51.4075 53.5458 51.7668 53.5458 51.7668C53.5458 51.7668 55.4003 44.118 50.0085 44.118C46.6418 44.118 41.9958 47.7734 39.6943 51.0694C37.078 52.4811 34.4639 53.8968 31.8521 55.3166C30.5953 56.0139 29.2951 56.7113 28.0804 57.3661C27.9949 57.2818 27.9099 57.1758 27.8244 57.0915C21.3034 50.1822 9.24203 45.3012 9.75342 36.0257C9.94537 32.6449 11.1171 23.7705 32.9178 12.9947C50.8609 4.22583 65.1392 6.65549 67.6111 12.0436C71.1484 19.7349 59.9608 34.0183 41.4204 36.0887C34.3455 36.8708 30.6373 34.1661 29.7 33.152C28.7197 32.0953 28.5703 32.0318 28.2079 32.2435C27.6115 32.5606 27.9949 33.5113 28.2079 34.0605C28.7622 35.4969 31.0422 38.0326 34.8994 39.2796C38.3091 40.378 46.5988 40.991 56.6361 37.1454C67.8666 32.8348 76.6467 20.8546 74.0682 10.8183C71.4893 0.633908 54.4411 -2.72556 38.3091 2.95799C28.7197 6.33921 18.32 11.6634 10.8402 18.594C1.95366 26.834 0.54699 33.997 1.12236 36.9976C3.18987 47.6465 18.0006 54.5771 23.9248 59.7114C23.6264 59.8804 23.349 60.0286 23.115 60.1555C20.1526 61.6132 8.85814 67.4658 6.04526 73.6568C2.84894 80.6716 6.55711 85.7009 9.00759 86.3765C16.6154 88.4686 24.4362 84.7076 28.6343 78.4953C32.8323 72.2834 32.321 64.2119 30.3819 60.5144C30.3604 60.4722 30.3394 60.4296 30.2964 60.3875C31.0637 59.9439 31.8521 59.479 32.6194 59.0354C34.0297 58.2088 35.4578 57.4126 36.9029 56.6474C36.1781 58.6126 35.6452 60.958 35.3898 64.3387C35.0699 68.3113 36.7105 73.4665 38.863 75.4947C39.8223 76.3828 40.9516 76.4037 41.6764 76.4037C44.1908 76.4037 45.3206 74.3329 46.5778 71.8819C48.112 68.8818 49.4972 65.3954 49.4972 65.3954C49.4972 65.3954 47.771 74.8191 52.4595 74.8191C54.1641 74.8191 55.8902 72.6214 56.6576 71.5017V71.5226C56.6576 71.5226 56.7001 71.4592 56.7855 71.3114C56.956 71.0368 57.0625 70.8674 57.0625 70.8674V70.8257C57.7443 69.6421 59.279 66.9587 61.559 62.5004C64.4998 56.7534 67.3342 49.5696 67.3342 49.5696C67.3342 49.5696 67.5901 51.3232 68.4635 54.239C68.9753 55.9505 70.0401 57.831 70.8929 59.648C70.2111 60.5991 69.7847 61.127 69.7847 61.127L69.8061 61.1483C69.2518 61.8665 68.6554 62.6481 67.9946 63.4094C65.6716 66.1558 62.9017 69.3045 62.5178 70.2126C62.0699 71.2901 62.1769 72.0722 63.0296 72.7062C63.6475 73.1711 64.7553 73.234 65.885 73.1711C67.9735 73.0229 69.4437 72.5158 70.1681 72.1991C71.2978 71.7976 72.619 71.1846 73.8548 70.276C76.1353 68.6067 77.52 66.2192 77.3925 63.0714C77.3285 61.3386 76.7531 59.6059 76.0498 57.9787C76.2632 57.6833 76.4547 57.3874 76.6681 57.0915C80.2694 51.8724 83.0612 46.1462 83.0612 46.1462C83.0612 46.1462 83.3172 47.8998 84.1905 50.8161C84.6169 52.2951 85.4907 53.901 86.2575 55.4643C82.8693 58.1903 80.7808 61.3594 80.0349 63.4302C78.6927 67.2759 79.7365 69.0082 81.7185 69.4097C82.6134 69.6 83.8921 69.1772 84.8298 68.7757C86.0231 68.3956 87.4298 67.7408 88.7725 66.7684C91.0529 65.0995 93.2475 62.775 93.1195 59.6272C93.0555 58.1903 92.6721 56.7743 92.1392 55.4009C95.0161 54.2182 98.7243 53.563 103.455 54.1122C113.599 55.2953 115.602 61.5706 115.218 64.2123C114.835 66.8531 112.704 68.29 112.001 68.7336C111.297 69.1777 111.063 69.3254 111.127 69.6421C111.212 70.107 111.553 70.0862 112.15 70.0014C112.981 69.8537 117.478 67.8672 117.669 63.0075C117.989 56.7956 112.022 50.0132 101.473 50.0766ZM23.2215 76.2346C19.8542 79.8687 15.1662 81.2421 13.1417 80.0803C10.9682 78.8333 11.8205 73.4665 15.9546 69.6213C18.469 67.2759 21.7083 65.0991 23.8608 63.7683C24.3507 63.4724 25.0755 63.0501 25.9493 62.5217C26.0983 62.437 26.1838 62.3948 26.1838 62.3948L26.6952 62.0776C28.2079 67.5713 26.7592 72.4103 23.2215 76.2346ZM47.7285 59.7114C46.5563 62.543 44.1058 69.7903 42.6142 69.3888C41.3354 69.0508 40.5466 63.5571 42.3582 58.1269C43.2745 55.4009 45.2136 52.147 46.3433 50.8796C48.1759 48.8509 50.2005 48.1744 50.6904 48.9991C51.3087 50.0766 48.4529 57.9365 47.7285 59.7114ZM67.9521 69.3041C67.4617 69.5578 66.9933 69.7269 66.7798 69.6C66.6309 69.5153 66.9933 69.1772 66.9933 69.1772C66.9933 69.1772 69.5292 66.473 70.5305 65.2473C71.1063 64.5291 71.7877 63.684 72.5126 62.7329V63.0075C72.5126 66.2405 69.3583 68.4169 67.9516 69.3041H67.9521ZM83.5511 65.7756C83.1887 65.5219 83.2527 64.6768 84.4674 62.0355C84.9363 61.0001 86.0441 59.2678 87.9412 57.5985C88.1541 58.2746 88.3036 58.9298 88.2821 59.5424C88.2606 63.6205 85.3202 65.1417 83.5511 65.7756Z"
              fill="#CD6799"/>
        <defs>
            <clipPath id="clip0_13_2988">
                <rect fill="white" transform="translate(0.799988)"/>
            </clipPath>
        </defs>
    </g>
    <g id="react">
        <svg xmlns="http://www.w3.org/2000/svg" viewBox="0 0 115 115" width="112" height="112">
            <path d="M93.1056 32.7027C91.9031 32.2887 90.6904 31.9051 89.4687 31.5523C89.6739 30.7106 89.8628 29.8792 90.0305 29.0623C92.7838 15.6483 90.9839 4.84178 84.8361 1.28375C78.9416 -2.12722 69.3016 1.42949 59.5659 9.93342C58.6064 10.773 57.6682 11.6368 56.7521 12.524C56.1389 11.934 55.5149 11.3556 54.8803 10.7888C44.6767 1.69616 34.4493 -2.13608 28.3081 1.43215C22.4189 4.85374 20.675 15.0127 23.1538 27.7254C23.4004 28.9844 23.6788 30.237 23.9888 31.4819C22.5411 31.8947 21.1442 32.3342 19.8073 32.8019C7.84441 36.9881 0.204742 43.5483 0.204742 50.3529C0.204742 57.3808 8.40627 64.43 20.8661 68.7043C21.8763 69.0495 22.8948 69.3692 23.9209 69.6634C23.5876 71.0042 23.2918 72.354 23.0337 73.7114C20.6706 86.2035 22.516 96.1223 28.3893 99.5222C34.4555 103.033 44.637 99.4247 54.5506 90.7268C55.3545 90.0196 56.1407 89.2925 56.9084 88.546C57.9004 89.5066 58.9189 90.4393 59.9627 91.343C69.566 99.6365 79.0501 102.985 84.9177 99.5762C90.9782 96.055 92.948 85.3995 90.3907 72.4356C90.1892 71.42 89.9633 70.4094 89.7132 69.4047C90.4282 69.1921 91.13 68.9732 91.8141 68.7455C104.767 64.4384 113.195 57.4747 113.195 50.3529C113.195 43.5234 105.309 36.919 93.1056 32.7027ZM90.2962 64.1474C89.6783 64.3525 89.0445 64.5505 88.3983 64.7432C86.9683 60.1995 85.0386 55.3684 82.6769 50.3764C84.9305 45.5036 86.786 40.734 88.1759 36.22C89.3318 36.5558 90.4534 36.9097 91.5347 37.2832C101.991 40.8961 108.369 46.2372 108.369 50.3529C108.369 54.7367 101.481 60.4277 90.2962 64.1474ZM85.6557 73.3765C86.7865 79.1087 86.9476 84.2916 86.1986 88.3435C85.5259 91.9844 84.1727 94.4115 82.499 95.3839C78.9385 97.4526 71.3235 94.7637 63.111 87.6706C62.1401 86.8305 61.1927 85.9634 60.2699 85.0703C63.4539 81.5756 66.6357 77.5131 69.7412 73.0008C75.2036 72.5144 80.3641 71.7188 85.0439 70.6331C85.2694 71.5426 85.4734 72.4573 85.6557 73.3765ZM38.7257 95.0264C35.2468 96.2592 32.4759 96.2946 30.8009 95.3254C27.2369 93.2624 25.7552 85.298 27.7762 74.6151C28.0165 73.3527 28.2915 72.0972 28.6011 70.8502C33.2293 71.8779 38.3523 72.6168 43.8275 73.0624C46.9542 77.4776 50.2278 81.5358 53.5271 85.0894C52.8259 85.7703 52.1082 86.4338 51.3745 87.0793C46.9904 90.9252 42.5974 93.654 38.7257 95.0264ZM22.4277 64.1204C16.9181 62.2302 12.368 59.7738 9.24929 57.0933C6.44659 54.6848 5.032 52.2932 5.032 50.3529C5.032 46.2234 11.1657 40.9564 21.3962 37.3766C22.6378 36.9425 23.9372 36.5327 25.2856 36.1482C26.6997 40.7641 28.5544 45.5904 30.7925 50.4707C28.5252 55.4233 26.6441 60.3267 25.2163 64.997C24.2797 64.7278 23.3499 64.4355 22.4277 64.1204ZM27.891 26.7947C25.7676 15.9031 27.1777 7.68706 30.7268 5.62497C34.5067 3.42867 42.8653 6.56011 51.6755 14.4115C52.25 14.9247 52.8152 15.4482 53.3708 15.9819C50.0879 19.52 46.8443 23.548 43.7454 27.9371C38.4313 28.4315 33.3445 29.2253 28.6678 30.2889C28.3797 29.131 28.1206 27.9661 27.891 26.7951V26.7947ZM76.6301 38.8739C75.5255 36.9589 74.3798 35.0679 73.194 33.2024C76.7991 33.66 80.2533 34.2673 83.4969 35.0098C82.5233 38.1425 81.3095 41.4175 79.8808 44.7753C78.8365 42.7867 77.7527 40.8191 76.6301 38.8739ZM56.7544 19.4443C58.9806 21.8652 61.2104 24.5678 63.4036 27.5003C58.9546 27.2894 54.4982 27.2886 50.0491 27.4977C52.2444 24.5922 54.4932 21.8931 56.7544 19.4443ZM36.751 38.9071C35.6425 40.8367 34.5789 42.792 33.5613 44.7713C32.1559 41.4255 30.9532 38.1355 29.9712 34.9584C33.1949 34.2346 36.6327 33.6427 40.2149 33.1935C39.0159 35.0704 37.8609 36.9754 36.751 38.9067V38.9071ZM40.3177 67.8569C36.6169 67.4423 33.1274 66.881 29.9045 66.1767C30.902 62.9429 32.1312 59.5829 33.567 56.1653C34.5887 58.1461 35.6567 60.1026 36.77 62.033C37.9149 64.0176 39.1004 65.9614 40.3177 67.8569ZM56.8876 81.6027C54.5996 79.1255 52.3177 76.3848 50.0892 73.4372C52.2528 73.5222 54.4583 73.5656 56.7001 73.5656C59.0031 73.5656 61.2797 73.5138 63.5205 73.4137C61.3203 76.4145 59.0989 79.1592 56.8876 81.6027ZM79.9263 55.9907C81.4366 59.446 82.7095 62.7883 83.7203 65.9667C80.4444 66.7171 76.9073 67.3214 73.1804 67.7701C74.3746 65.8699 75.5311 63.9461 76.6491 61.9998C77.7858 60.0214 78.8784 58.0179 79.9263 55.9907ZM72.468 59.5794C70.7564 62.5634 68.9487 65.4909 67.0475 68.357C63.6038 68.6018 60.1524 68.7234 56.7001 68.7216C53.1837 68.7216 49.7635 68.6118 46.47 68.3974C44.5192 65.5378 42.677 62.6053 40.9471 59.6059H40.9476C39.2259 56.6225 37.6177 53.5745 36.1265 50.4685C37.6139 47.3618 39.2172 44.3124 40.933 41.3267L40.9326 41.3271C42.6477 38.3407 44.4753 35.4206 46.4113 32.5734C49.7714 32.3182 53.2172 32.1853 56.6996 32.1853H56.7001C60.1984 32.1853 63.6485 32.3195 67.0078 32.5765C68.9243 35.4195 70.7402 38.3295 72.4521 41.301C74.1736 44.2801 75.7981 47.3147 77.3231 50.3999C75.8138 53.5166 74.1944 56.5783 72.468 59.5794ZM82.4253 5.48056C86.2087 7.67067 87.6802 16.5024 85.303 28.0842C85.1512 28.8231 84.9808 29.5757 84.7954 30.339C80.1072 29.2528 75.0169 28.4452 69.6874 27.9433C66.5828 23.506 63.3656 19.4717 60.1361 15.9792C60.9825 15.1604 61.849 14.3628 62.7349 13.5871C71.0768 6.30141 78.8732 3.42468 82.4253 5.48056ZM56.7001 40.2263C62.2724 40.2263 66.7898 44.7603 66.7898 50.3529C66.7898 55.9456 62.2724 60.4795 56.7001 60.4795C51.1278 60.4795 46.6104 55.9456 46.6104 50.3529C46.6104 44.7603 51.1278 40.2263 56.7001 40.2263Z"
                  fill="#00D8FF"/>
        </svg>
    </g>
    <g id="git">
        <path d="M103.62 47.8219L57.7758 1.98038C55.1372 -0.6598 50.8552 -0.6598 48.2134 1.98038L38.6937 11.5001L50.7699 23.5763C53.5762 22.6281 56.7943 23.2642 59.0313 25.5012C61.2789 27.7525 61.9106 30.9981 60.9393 33.8134L72.5775 45.452C75.3932 44.482 78.6421 45.1095 80.891 47.3621C84.034 50.5039 84.034 55.596 80.891 58.7399C77.7471 61.8841 72.655 61.8841 69.5095 58.7399C67.1454 56.3733 66.5613 52.9013 67.7582 49.9888L56.9046 39.1352L56.9034 67.6973C57.6902 68.0863 58.4088 68.6002 59.0313 69.2189C62.1743 72.3607 62.1743 77.4532 59.0313 80.5995C55.8874 83.7422 50.7929 83.7422 47.6535 80.5995C44.5105 77.4532 44.5105 72.3611 47.6535 69.2193C48.4067 68.4658 49.3019 67.869 50.2872 67.4635V38.6352C49.3004 38.2324 48.4048 37.6353 47.6535 36.8793C45.2722 34.5013 44.6996 31.0071 45.9198 28.0831L34.0154 16.1775L2.58106 47.6099C-0.0603455 50.2525 -0.0603455 54.5349 2.58106 57.1755L48.4259 103.018C51.0652 105.658 55.3464 105.658 57.9891 103.018L103.619 57.3884C106.26 54.747 106.26 50.4621 103.619 47.8219"
              fill="#DE4C36"/>
    </g>
    <g id="github">
        <svg xmlns="http://www.w3.org/2000/svg" viewBox="0 0 88 88" width="112" height="112">
            <path fill-rule="evenodd" clip-rule="evenodd"
                  d="M44 0C19.69 0 0 19.69 0 44C0 63.47 12.595 79.915 30.085 85.745C32.285 86.13 33.11 84.81 33.11 83.655C33.11 82.61 33.055 79.145 33.055 75.46C22 77.495 19.14 72.765 18.26 70.29C17.765 69.025 15.62 65.12 13.75 64.075C12.21 63.25 10.01 61.215 13.695 61.16C17.16 61.105 19.635 64.35 20.46 65.67C24.42 72.325 30.745 70.455 33.275 69.3C33.66 66.44 34.815 64.515 36.08 63.415C26.29 62.315 16.06 58.52 16.06 41.69C16.06 36.905 17.765 32.945 20.57 29.865C20.13 28.765 18.59 24.255 21.01 18.205C21.01 18.205 24.695 17.05 33.11 22.715C36.63 21.725 40.37 21.23 44.11 21.23C47.85 21.23 51.59 21.725 55.11 22.715C63.525 16.995 67.21 18.205 67.21 18.205C69.63 24.255 68.09 28.765 67.65 29.865C70.455 32.945 72.16 36.85 72.16 41.69C72.16 58.575 61.875 62.315 52.085 63.415C53.68 64.79 55.055 67.43 55.055 71.555C55.055 77.44 55 82.17 55 83.655C55 84.81 55.825 86.185 58.025 85.745C66.7597 82.796 74.3497 77.1822 79.7268 69.6937C85.1039 62.2052 87.9974 53.219 88 44C88 19.69 68.31 0 44 0Z"
                  fill="black"/>
        </svg>
    </g>
    <g id="mail">
        <path xmlns="http://www.w3.org/2000/svg" fill-rule="evenodd" clip-rule="evenodd"
              d="M0.13125 4.64667C0.395898 3.46865 1.04647 2.41683 1.97642 1.66349C2.90637 0.910143 4.06057 0.499919 5.25 0.5H36.75C37.9394 0.499919 39.0936 0.910143 40.0236 1.66349C40.9535 2.41683 41.6041 3.46865 41.8687 4.64667L21 17.604L0.13125 4.64667ZM0 7.692V26.636L15.2329 17.148L0 7.692ZM17.7476 18.7133L0.501375 29.452C0.927482 30.3648 1.60001 31.1358 2.44068 31.6754C3.28135 32.215 4.25558 32.501 5.25 32.5H36.75C37.7443 32.5002 38.7181 32.2136 39.5583 31.6736C40.3985 31.1335 41.0705 30.3622 41.496 29.4493L24.2498 18.7107L21 20.7293L17.7476 18.7107V18.7133ZM26.7671 17.1507L42 26.636V7.692L26.7671 17.148V17.1507Z"
              fill="#25282B"/>
    </g>
    <g id="linkedin">
        <path xmlns="http://www.w3.org/2000/svg"
              d="M0 3.22175C0 1.71837 1.24925 0.5 2.79062 0.5H35.2094C36.7507 0.5 38 1.71837 38 3.22175V35.7783C38 37.2816 36.7507 38.5 35.2094 38.5H2.79062C1.24925 38.5 0 37.2816 0 35.7783V3.22175ZM11.7396 32.3108V15.1514H6.03725V32.3108H11.7396ZM8.88963 12.8073C10.8775 12.8073 12.1149 11.4915 12.1149 9.84325C12.0792 8.15938 10.8799 6.87925 8.92762 6.87925C6.97538 6.87925 5.7 8.16175 5.7 9.84325C5.7 11.4915 6.93738 12.8073 8.85163 12.8073H8.88963ZM20.5461 32.3108V22.7276C20.5461 22.2146 20.5841 21.7016 20.7361 21.3359C21.147 20.3123 22.0851 19.2506 23.6621 19.2506C25.726 19.2506 26.5501 20.8229 26.5501 23.1314V32.3108H32.2525V22.4688C32.2525 17.1962 29.4405 14.7453 25.688 14.7453C22.6623 14.7453 21.3061 16.4078 20.5461 17.5786V17.638H20.5081C20.5207 17.6182 20.5334 17.5984 20.5461 17.5786V15.1514H14.8461C14.9174 16.7616 14.8461 32.3108 14.8461 32.3108H20.5461Z"
              fill="#25282B"/>
    </g>
    <g id="instagramm">
        <path xmlns="http://www.w3.org/2000/svg"
              d="M25 19.5C25 20.6867 24.6481 21.8467 23.9888 22.8334C23.3295 23.8201 22.3925 24.5892 21.2961 25.0433C20.1997 25.4974 18.9933 25.6162 17.8295 25.3847C16.6656 25.1532 15.5965 24.5818 14.7574 23.7426C13.9182 22.9035 13.3468 21.8344 13.1153 20.6705C12.8838 19.5067 13.0026 18.3003 13.4567 17.2039C13.9108 16.1075 14.6799 15.1705 15.6666 14.5112C16.6533 13.8519 17.8133 13.5 19 13.5C20.5907 13.5018 22.1158 14.1346 23.2406 15.2594C24.3654 16.3842 24.9982 17.9093 25 19.5ZM37.75 11.25V27.75C37.7468 30.5338 36.6396 33.2027 34.6711 35.1711C32.7027 37.1396 30.0338 38.2468 27.25 38.25H10.75C7.9662 38.2468 5.29733 37.1396 3.32889 35.1711C1.36044 33.2027 0.253176 30.5338 0.25 27.75V11.25C0.253176 8.4662 1.36044 5.79733 3.32889 3.82889C5.29733 1.86044 7.9662 0.753176 10.75 0.75H27.25C30.0338 0.753176 32.7027 1.86044 34.6711 3.82889C36.6396 5.79733 37.7468 8.4662 37.75 11.25ZM28 19.5C28 17.72 27.4722 15.9799 26.4832 14.4999C25.4943 13.0198 24.0887 11.8663 22.4442 11.1851C20.7996 10.5039 18.99 10.3257 17.2442 10.6729C15.4984 11.0202 13.8947 11.8774 12.636 13.136C11.3774 14.3947 10.5202 15.9984 10.1729 17.7442C9.82567 19.49 10.0039 21.2996 10.6851 22.9442C11.3663 24.5887 12.5198 25.9943 13.9999 26.9832C15.4799 27.9722 17.22 28.5 19 28.5C21.3861 28.4973 23.6738 27.5482 25.361 25.861C27.0482 24.1738 27.9973 21.8861 28 19.5ZM31 9.75C31 9.30499 30.868 8.86998 30.6208 8.49997C30.3736 8.12996 30.0222 7.84157 29.611 7.67127C29.1999 7.50097 28.7475 7.45642 28.311 7.54323C27.8746 7.63005 27.4737 7.84434 27.159 8.15901C26.8443 8.47368 26.63 8.87459 26.5432 9.31105C26.4564 9.7475 26.501 10.1999 26.6713 10.611C26.8416 11.0222 27.13 11.3736 27.5 11.6208C27.87 11.868 28.305 12 28.75 12C29.3467 12 29.919 11.7629 30.341 11.341C30.7629 10.919 31 10.3467 31 9.75Z"
              fill="#25282B"/>
    </g>
    <g id="telegramm">
        <path id="Vector"
              d="M36.75 0.38L1.31 14.25C-0.12 14.9 -0.6 16.19 0.96 16.9L10.06 19.83L32.04 6.04C33.24 5.17 34.47 5.4 33.41 6.36L14.53 23.71L13.94 31.05C14.49 32.18 15.49 32.19 16.13 31.63L21.36 26.61L30.3 33.41C32.38 34.66 33.51 33.85 33.96 31.56L39.83 3.36C40.44 0.54 39.4 -0.7 36.75 0.38Z"
              fill="#25282B" fill-opacity="nonzero" fill-rule="nonzero"/>
    </g>
    <g id="styledComponents">

        <defs/>
        <path id="Vector"
              d="M68.76 117.27C68.94 116.87 69.4 116.58 69.73 116.24C74.76 110.96 79.84 105.73 84.81 100.39C86.36 98.95 87.56 97.18 88.31 95.2C89.07 93.22 89.36 91.1 89.15 88.99C89 88.09 88.79 87.2 88.54 86.32C87.18 87.6 85.92 88.77 84.66 89.95C82.68 91.79 80.72 93.63 78.73 95.44C77.56 96.64 76.05 97.45 74.41 97.77C72.77 98.09 71.06 97.9 69.53 97.24C67.97 96.67 66.62 95.65 65.64 94.32C64.66 92.98 64.09 91.39 64 89.74C63.96 89.52 63.89 89.32 63.82 89.11C62.3 90.4 60.86 91.58 59.42 92.8L29.58 118.08C29.38 118.26 29.15 118.47 28.96 118.65L68.74 118.65L68.68 118.61C68.47 118.46 68.58 117.67 68.76 117.27Z"
              fill="#FFCEBF" fill-opacity="1.000000" fill-rule="nonzero"/>
        <path id="Vector"
              d="M27.14 117.27C27.49 116.81 27.92 116.41 28.4 116.09L69.69 81.06C72.51 78.67 75.32 76.26 78.11 73.85C78.45 73.61 78.72 73.27 78.89 72.89C79.55 69.98 79.65 66.97 79.17 64.02C78.74 64.32 78.51 64.45 78.31 64.66C74.93 67.69 71.56 70.74 68.17 73.74C67.04 74.88 65.58 75.62 64.01 75.88C62.43 76.13 60.81 75.88 59.39 75.15C57.94 74.47 56.72 73.37 55.9 71.99C55.07 70.61 54.68 69.02 54.76 67.41L54.76 66.02C54.14 66.48 53.69 66.78 53.26 67.12C36.73 80.36 20.21 93.58 3.69 106.79C2.94 107.39 2.05 108.72 1.08 107.43C0.1 106.14 1.59 105.61 2.34 105.01C19.95 90.87 37.57 76.75 55.2 62.65C58.07 60.34 58.26 59.38 56.39 55.73L55.28 56.77C52.22 59.61 49.13 62.41 46.12 65.3C44.89 66.49 43.34 67.31 41.66 67.66C39.99 68.01 38.24 67.88 36.64 67.28C35.03 66.68 33.63 65.64 32.59 64.27C31.55 62.91 30.91 61.28 30.76 59.57C30.19 60 29.7 60.31 29.23 60.68L3.09 80.94C2.64 81.38 2.13 81.75 1.56 82.04C1.14 82.17 0.69 82.15 0.28 81.98L0.28 118.67L27.09 118.67C26.99 118.45 26.94 118.21 26.95 117.96C26.96 117.72 27.02 117.49 27.14 117.27Z"
              fill="#FFCEBF" fill-opacity="1.000000" fill-rule="nonzero"/>
        <path id="Vector"
              d="M99.56 0.82C98.83 3.2 98.12 5.59 97.49 8.01C96.9 9.71 96.97 11.58 97.68 13.23C98.39 14.89 99.7 16.22 101.34 16.96C106.37 19.61 112.04 20.79 117.7 20.39L117.7 1.22C117.64 0.8 117.66 0.37 117.77 -0.04C117.89 -0.27 118.04 -0.48 118.22 -0.68L99.54 -0.68C99.83 -0.34 99.73 0.25 99.56 0.82Z"
              fill="#FF6196" fill-opacity="1.000000" fill-rule="nonzero"/>
        <path id="Vector"
              d="M62.05 41.99C61.96 44.13 61.21 46.19 59.9 47.89C55.24 53.91 49.88 59.37 43.94 64.14C42.98 65.03 41.76 65.59 40.47 65.74C39.17 65.89 37.86 65.63 36.72 65C35.59 64.51 34.63 63.69 33.98 62.64C33.34 61.59 33.03 60.36 33.11 59.13C33.25 57.62 33.87 56.2 34.9 55.08C41.54 48.74 48.74 43.01 56.4 37.96C56.9 37.57 57.52 37.34 58.16 37.32C58.79 37.29 59.42 37.47 59.96 37.82C60.65 38.25 61.22 38.87 61.59 39.61C61.96 40.35 62.12 41.17 62.05 41.99Z"
              fill="#FF87AF" fill-opacity="1.000000" fill-rule="nonzero"/>
        <path id="Vector"
              d="M56.91 67.97C56.81 67.02 56.93 66.06 57.26 65.17C57.6 64.28 58.13 63.47 58.83 62.82C65.33 56.82 72.31 51.36 79.7 46.48C79.92 46.34 80.12 46.2 80.37 46.05C81.01 45.59 81.8 45.35 82.59 45.38C83.39 45.41 84.15 45.7 84.76 46.2C85.35 46.71 85.77 47.38 85.96 48.13C86.14 48.89 86.09 49.68 85.8 50.4C84.86 53.51 83.14 56.33 80.79 58.58C76.03 63.27 71.17 67.87 66.22 72.37C65.48 73.14 64.5 73.64 63.44 73.79C62.38 73.94 61.31 73.73 60.38 73.2C59.4 72.69 58.57 71.94 57.97 71.03C57.36 70.11 57 69.06 56.91 67.97Z"
              fill="#FF87AF" fill-opacity="1.000000" fill-rule="nonzero"/>
        <path id="Vector"
              d="M87.83 70.8C86.63 72.08 85.4 73.31 84.24 74.62C83.9 75.13 83.61 75.68 83.39 76.25C84.02 76.44 84.76 76.94 85.28 76.76C87.89 75.88 90.45 74.83 93.32 73.72C92.7 75.16 92.23 76.49 91.56 77.7C88.83 82.3 85.4 86.45 81.4 90.01C79.88 91.48 78.3 92.88 76.67 94.22C75.8 94.93 74.76 95.41 73.65 95.6C72.53 95.78 71.39 95.67 70.34 95.26C69.29 94.86 68.36 94.19 67.65 93.31C66.95 92.44 66.49 91.39 66.32 90.27C66.25 89.65 66.3 89.03 66.48 88.43C66.65 87.83 66.95 87.27 67.34 86.79C73.17 80.46 79.83 74.95 87.15 70.41C87.24 70.37 87.33 70.35 87.43 70.35L87.83 70.8Z"
              fill="#FF87AF" fill-opacity="1.000000" fill-rule="nonzero"/>
        <path id="Vector"
              d="M97.67 53.73L105 21.16L110.14 22.37L107.49 30.43C105.01 37.92 102.51 45.42 100.09 52.93C99.62 54.32 99 54.58 97.67 53.73Z"
              fill="#FF6196" fill-opacity="1.000000" fill-rule="nonzero"/>
        <path id="Vector"
              d="M89.38 72.88C90.16 69.92 90.93 67.18 91.58 64.42C92.21 61.73 93.42 59.22 95.12 57.04C96.16 55.67 97.33 56.22 98.53 56.51C99.63 56.78 99.91 57.59 99.96 58.66C100.13 61.6 99.24 64.5 97.44 66.83C95.3 69.48 92.53 71.56 89.38 72.88Z"
              fill="#FF6196" fill-opacity="1.000000" fill-rule="nonzero"/>
        <path id="Vector"
              d="M119.94 2.83C120 1.88 119.98 0.92 119.87 -0.03C119.78 -0.29 119.6 -0.52 119.37 -0.68C119.18 -0.83 118.96 -0.94 118.72 -1C118.58 -1.02 118.39 -0.88 118.2 -0.68C118.03 -0.49 117.87 -0.27 117.75 -0.04C117.65 0.37 117.62 0.8 117.69 1.22L117.69 20.38C112.02 20.78 106.35 19.6 101.32 16.95C99.68 16.21 98.37 14.88 97.66 13.22C96.95 11.57 96.88 9.7 97.47 8C98.11 5.59 98.81 3.19 99.54 0.81C99.71 0.24 99.81 -0.35 99.54 -0.68C99.39 -0.85 99.18 -0.94 98.96 -0.96C98.68 -0.95 98.41 -0.86 98.18 -0.68C97.86 -0.49 97.61 -0.21 97.45 0.13C96.59 2.7 95.84 5.3 95.18 7.92C94.94 8.95 94.87 10.02 94.99 11.08C95.15 12.99 95.86 14.81 97.03 16.33C98.21 17.85 99.79 19 101.59 19.65C102.4 19.99 102.88 20.32 102.65 21.39C102.34 22.74 102.04 24.1 101.73 25.46C99.63 34.66 97.54 43.87 95.46 53.08C95.4 53.49 95.22 53.88 94.94 54.18C93.57 55.27 92.42 56.61 91.55 58.13C90.44 60.13 89.68 62.3 89.28 64.55C89.21 65.27 88.95 65.96 88.53 66.55C88.11 67.14 87.55 67.61 86.89 67.92C85.1 68.82 83.46 69.99 81.48 71.21C81.61 68.82 81.59 66.43 81.4 64.05C81.25 63.32 81.28 62.56 81.5 61.84C81.71 61.12 82.09 60.47 82.62 59.93C85.23 57.35 87.1 54.1 88.01 50.53C88.28 49.71 88.36 48.83 88.23 47.97C88.1 47.11 87.77 46.29 87.27 45.58C86.76 44.87 86.1 44.29 85.33 43.89C84.56 43.48 83.7 43.26 82.83 43.25C81.42 43.23 80.04 43.63 78.85 44.38C74.76 47.17 70.75 50.07 66.8 53.06C64.46 54.83 62.25 56.78 59.98 58.63C59.88 58.53 59.8 58.41 59.73 58.28C59.68 57.97 59.6 57.66 59.47 57.37C57.58 54.44 58.89 52.31 60.95 50.12C63.1 47.87 64.29 44.87 64.26 41.76C64.33 40.17 63.83 38.61 62.86 37.36C62.34 36.72 61.7 36.2 60.98 35.8C59.96 35.24 58.79 35.01 57.62 35.13C56.46 35.26 55.37 35.73 54.48 36.5L53.29 37.36C50.56 39.31 47.79 41.21 45.17 43.3C41.33 46.37 37.58 49.53 33.91 52.79C32.2 54.3 30.95 56.37 29.17 57.78C19.9 65.1 10.52 72.29 1.19 79.53C0.87 79.72 0.57 79.95 0.31 80.22C0.28 80.26 0.26 80.3 0.24 80.34C0.04 80.8 -0.12 81.56 0.11 81.84C0.16 81.9 0.23 81.95 0.31 81.98C0.72 82.15 1.17 82.17 1.59 82.04C2.15 81.75 2.67 81.38 3.12 80.94L29.26 60.68C29.73 60.31 30.22 59.98 30.79 59.57C30.94 61.28 31.58 62.91 32.62 64.27C33.66 65.63 35.06 66.68 36.67 67.27C38.27 67.87 40.02 68.01 41.69 67.66C43.37 67.31 44.92 66.49 46.15 65.3C49.15 62.41 52.25 59.61 55.31 56.77L56.42 55.72C58.29 59.38 58.1 60.34 55.23 62.64C37.58 76.76 19.95 90.88 2.34 105.01C1.59 105.61 0.1 106.15 1.08 107.43C2.05 108.71 2.94 107.39 3.69 106.79C20.22 93.59 36.74 80.37 53.24 67.14C53.67 66.8 54.12 66.49 54.74 66.04L54.74 67.43C54.66 69.03 55.05 70.62 55.88 72C56.7 73.38 57.92 74.48 59.37 75.17C60.8 75.89 62.41 76.15 63.99 75.89C65.57 75.64 67.02 74.89 68.15 73.76C71.55 70.76 74.91 67.7 78.29 64.67C78.51 64.48 78.75 64.34 79.15 64.04C79.63 66.98 79.54 69.99 78.87 72.9C78.7 73.29 78.43 73.62 78.09 73.86C75.3 76.28 72.49 78.68 69.68 81.07L28.4 116.11C27.92 116.43 27.49 116.83 27.14 117.29C27.03 117.5 26.96 117.74 26.95 117.97C26.94 118.21 26.99 118.45 27.09 118.67C27.28 118.81 27.5 118.91 27.74 118.96C27.98 119.01 28.22 119 28.46 118.94C28.64 118.88 28.81 118.79 28.96 118.66C29.17 118.49 29.38 118.27 29.58 118.09L59.41 92.81C60.85 91.59 62.3 90.39 63.81 89.13C63.89 89.33 63.95 89.54 64 89.75C64.08 91.41 64.65 93 65.63 94.33C66.62 95.66 67.97 96.68 69.52 97.25C71.06 97.92 72.76 98.1 74.4 97.78C76.05 97.46 77.56 96.65 78.73 95.45C80.72 93.64 82.68 91.8 84.65 89.97C85.94 88.79 87.18 87.6 88.53 86.33C88.78 87.21 88.99 88.1 89.15 89.01C89.34 91.1 89.05 93.22 88.3 95.19C87.55 97.16 86.35 98.93 84.8 100.36C79.83 105.71 74.76 110.94 69.72 116.21C69.39 116.56 68.94 116.84 68.76 117.25C68.58 117.65 68.46 118.45 68.67 118.62L68.73 118.66C69.18 118.88 69.69 118.95 70.18 118.88C70.32 118.85 70.44 118.77 70.53 118.66C70.65 118.54 70.77 118.38 70.88 118.27C74.96 114.05 79.06 109.85 83.11 105.61C84.75 103.95 86.28 102.2 87.71 100.37C89.58 98.3 90.82 95.74 91.28 93C91.74 90.25 91.41 87.43 90.33 84.87C90.21 84.3 90.33 83.7 90.65 83.22C90.92 82.74 91.23 82.27 91.55 81.81C92.56 80.49 93.41 79.05 94.06 77.52C95.33 73.77 97.28 70.28 99.8 67.24C100.96 65.76 101.76 64.04 102.14 62.2C102.51 60.36 102.44 58.46 101.95 56.66C101.77 55.97 101.77 55.25 101.95 54.56C104.11 47.85 106.35 41.15 108.56 34.45L111.51 25.48L112.43 22.71C114.37 22.71 116.21 22.67 118.03 22.71C119.55 22.75 120.01 22.04 120 20.57C119.91 14.65 119.94 8.74 119.94 2.83ZM43.93 64.14C42.97 65.03 41.76 65.59 40.46 65.74C39.17 65.89 37.86 65.63 36.72 65C35.58 64.51 34.63 63.69 33.98 62.64C33.33 61.59 33.03 60.36 33.1 59.13C33.24 57.62 33.87 56.2 34.89 55.08C41.53 48.74 48.73 43.01 56.4 37.96C56.82 37.67 57.29 37.46 57.79 37.36C58.13 37.3 58.48 37.3 58.81 37.36C59.22 37.44 59.6 37.6 59.95 37.82C60.65 38.25 61.22 38.87 61.59 39.61C61.96 40.35 62.11 41.18 62.04 42C61.95 44.14 61.2 46.2 59.9 47.89C55.23 53.92 49.87 59.37 43.93 64.14ZM66.22 72.4C65.47 73.17 64.49 73.67 63.43 73.82C62.38 73.97 61.3 73.76 60.37 73.23C59.39 72.72 58.56 71.97 57.96 71.05C57.35 70.14 56.98 69.08 56.9 67.98C56.8 67.04 56.92 66.08 57.25 65.19C57.59 64.29 58.12 63.49 58.82 62.84C65.32 56.84 72.3 51.38 79.69 46.5C79.91 46.36 80.12 46.22 80.36 46.07C81.01 45.61 81.79 45.37 82.58 45.4C83.38 45.42 84.14 45.71 84.75 46.22C85.35 46.72 85.76 47.4 85.95 48.15C86.14 48.91 86.08 49.7 85.79 50.42C84.86 53.53 83.13 56.35 80.78 58.59C76.06 63.32 71.14 67.86 66.22 72.39L66.22 72.4ZM91.55 77.72C88.81 82.31 85.39 86.46 81.4 90.01C79.88 91.48 78.3 92.88 76.67 94.22C75.8 94.94 74.76 95.41 73.65 95.6C72.53 95.78 71.39 95.67 70.34 95.27C69.29 94.86 68.36 94.19 67.65 93.31C66.95 92.44 66.49 91.39 66.32 90.27C66.25 89.65 66.3 89.03 66.48 88.43C66.65 87.83 66.95 87.27 67.34 86.79C73.17 80.46 79.83 74.95 87.15 70.41C87.24 70.37 87.33 70.35 87.43 70.35L87.86 70.78C86.66 72.07 85.42 73.29 84.27 74.61C83.92 75.12 83.63 75.66 83.41 76.24C84.05 76.42 84.79 76.92 85.3 76.75C87.37 76.05 89.41 75.25 91.59 74.39L93.35 73.7C92.69 75.16 92.22 76.49 91.55 77.71L91.55 77.72ZM97.43 66.86C95.83 68.89 93.83 70.58 91.55 71.8C90.84 72.19 90.12 72.56 89.37 72.9C90.14 69.98 90.9 67.28 91.55 64.55L91.57 64.43C92.21 61.75 93.41 59.23 95.11 57.06C96.15 55.69 97.32 56.24 98.52 56.53C99.62 56.8 99.9 57.61 99.95 58.67C100.12 61.61 99.23 64.51 97.44 66.84L97.43 66.86ZM107.46 30.44C104.98 37.93 102.47 45.43 100.06 52.94C99.6 54.35 98.98 54.61 97.65 53.76L104.01 25.51L104.98 21.17L110.13 22.37L109.09 25.51L107.46 30.44Z"
              fill="#000000" fill-opacity="1.000000" fill-rule="nonzero"/>
    </g>
    <g id="buttonToTop">
        <svg xmlns="http://www.w3.org/2000/svg" xmlns:xlink="http://www.w3.org/1999/xlink" width="16.000000"
             height="15.000000" viewBox="0 0 16 15" fill="none">
            <defs/>
            <path d="M6.8 4.28L6.8 15L9.19 15L9.19 4.28L14.31 9.08L16 7.5L8 0L0 7.5L1.68 9.08L6.8 4.28Z" fill="#FFFFFF"
                  fill-opacity="1.000000" fill-rule="nonzero"/>
        </svg>
    </g>
</svg>
